<mxfile host="65bd71144e">
    <diagram id="3zb8xV5Pr16Ok0mHAANG" name="Page-1">
        <mxGraphModel dx="1264" dy="672" grid="0" gridSize="10" guides="1" tooltips="1" connect="1" arrows="1" fold="1" page="1" pageScale="1" pageWidth="1169" pageHeight="827" math="0" shadow="0">
            <root>
                <mxCell id="0"/>
                <mxCell id="1" parent="0"/>
                <mxCell id="27" value="" style="whiteSpace=wrap;html=1;fillColor=none;strokeColor=none;" vertex="1" parent="1">
                    <mxGeometry x="380" y="230" width="505" height="340" as="geometry"/>
                </mxCell>
                <mxCell id="2" value="html" style="whiteSpace=wrap;html=1;fontSize=30;rotation=0;" vertex="1" parent="1">
                    <mxGeometry x="540" y="240" width="90" height="40" as="geometry"/>
                </mxCell>
                <mxCell id="16" style="edgeStyle=none;html=1;exitX=0.5;exitY=0;exitDx=0;exitDy=0;entryX=0.5;entryY=1;entryDx=0;entryDy=0;endArrow=none;endFill=0;rounded=0;fontSize=30;" edge="1" parent="1" source="3" target="2">
                    <mxGeometry relative="1" as="geometry">
                        <Array as="points">
                            <mxPoint x="440" y="300"/>
                            <mxPoint x="585" y="300"/>
                        </Array>
                    </mxGeometry>
                </mxCell>
                <mxCell id="18" style="edgeStyle=none;rounded=0;html=1;exitX=0.25;exitY=1;exitDx=0;exitDy=0;entryX=0;entryY=0.5;entryDx=0;entryDy=0;endArrow=none;endFill=0;fontSize=30;" edge="1" parent="1" source="3" target="5">
                    <mxGeometry relative="1" as="geometry">
                        <Array as="points">
                            <mxPoint x="415" y="380"/>
                        </Array>
                    </mxGeometry>
                </mxCell>
                <mxCell id="3" value="head" style="whiteSpace=wrap;html=1;fontSize=30;rotation=0;" vertex="1" parent="1">
                    <mxGeometry x="390" y="310" width="100" height="40" as="geometry"/>
                </mxCell>
                <mxCell id="17" style="edgeStyle=none;rounded=0;html=1;exitX=0.5;exitY=0;exitDx=0;exitDy=0;entryX=0.5;entryY=1;entryDx=0;entryDy=0;endArrow=none;endFill=0;fontSize=30;" edge="1" parent="1" source="4" target="2">
                    <mxGeometry relative="1" as="geometry">
                        <Array as="points">
                            <mxPoint x="710" y="300"/>
                            <mxPoint x="585" y="300"/>
                        </Array>
                    </mxGeometry>
                </mxCell>
                <mxCell id="4" value="body" style="whiteSpace=wrap;html=1;fontSize=30;rotation=0;" vertex="1" parent="1">
                    <mxGeometry x="660" y="310" width="100" height="40" as="geometry"/>
                </mxCell>
                <mxCell id="5" value="link" style="whiteSpace=wrap;html=1;fontSize=30;rotation=0;" vertex="1" parent="1">
                    <mxGeometry x="430" y="360" width="100" height="40" as="geometry"/>
                </mxCell>
                <mxCell id="19" style="edgeStyle=none;rounded=0;html=1;exitX=0;exitY=0.5;exitDx=0;exitDy=0;entryX=0.25;entryY=1;entryDx=0;entryDy=0;endArrow=none;endFill=0;fontSize=30;" edge="1" parent="1" source="8" target="3">
                    <mxGeometry relative="1" as="geometry">
                        <Array as="points">
                            <mxPoint x="415" y="430"/>
                        </Array>
                    </mxGeometry>
                </mxCell>
                <mxCell id="8" value="meta" style="whiteSpace=wrap;html=1;fontSize=30;rotation=0;" vertex="1" parent="1">
                    <mxGeometry x="430" y="410" width="100" height="40" as="geometry"/>
                </mxCell>
                <mxCell id="20" style="edgeStyle=none;rounded=0;html=1;exitX=0;exitY=0.5;exitDx=0;exitDy=0;endArrow=none;endFill=0;entryX=0.25;entryY=1;entryDx=0;entryDy=0;fontSize=30;" edge="1" parent="1" source="9" target="3">
                    <mxGeometry relative="1" as="geometry">
                        <mxPoint x="410" y="340" as="targetPoint"/>
                        <Array as="points">
                            <mxPoint x="415" y="480"/>
                        </Array>
                    </mxGeometry>
                </mxCell>
                <mxCell id="9" value="title" style="whiteSpace=wrap;html=1;fontSize=30;rotation=0;" vertex="1" parent="1">
                    <mxGeometry x="430" y="460" width="100" height="40" as="geometry"/>
                </mxCell>
                <mxCell id="34" style="edgeStyle=none;rounded=0;html=1;exitX=0.5;exitY=0;exitDx=0;exitDy=0;fontSize=30;endArrow=none;endFill=0;" edge="1" parent="1" source="10">
                    <mxGeometry relative="1" as="geometry">
                        <mxPoint x="710" y="350" as="targetPoint"/>
                        <Array as="points">
                            <mxPoint x="600" y="360"/>
                            <mxPoint x="710" y="360"/>
                        </Array>
                    </mxGeometry>
                </mxCell>
                <mxCell id="10" value="header" style="whiteSpace=wrap;html=1;fontSize=30;rotation=0;" vertex="1" parent="1">
                    <mxGeometry x="550" y="370" width="100" height="40" as="geometry"/>
                </mxCell>
                <mxCell id="21" style="edgeStyle=none;rounded=0;html=1;exitX=0.5;exitY=0;exitDx=0;exitDy=0;entryX=0.5;entryY=1;entryDx=0;entryDy=0;endArrow=none;endFill=0;fontSize=30;" edge="1" parent="1" source="11" target="4">
                    <mxGeometry relative="1" as="geometry"/>
                </mxCell>
                <mxCell id="31" style="edgeStyle=none;rounded=0;html=1;exitX=0.25;exitY=1;exitDx=0;exitDy=0;entryX=0;entryY=0.5;entryDx=0;entryDy=0;fontSize=30;endArrow=none;endFill=0;" edge="1" parent="1" source="11" target="28">
                    <mxGeometry relative="1" as="geometry">
                        <Array as="points">
                            <mxPoint x="685" y="440"/>
                        </Array>
                    </mxGeometry>
                </mxCell>
                <mxCell id="11" value="section" style="whiteSpace=wrap;html=1;fontSize=30;rotation=0;" vertex="1" parent="1">
                    <mxGeometry x="660" y="370" width="100" height="40" as="geometry"/>
                </mxCell>
                <mxCell id="35" style="edgeStyle=none;rounded=0;html=1;exitX=0.5;exitY=0;exitDx=0;exitDy=0;entryX=0.5;entryY=1;entryDx=0;entryDy=0;fontSize=30;endArrow=none;endFill=0;" edge="1" parent="1" source="12" target="4">
                    <mxGeometry relative="1" as="geometry">
                        <Array as="points">
                            <mxPoint x="820" y="360"/>
                            <mxPoint x="710" y="360"/>
                        </Array>
                    </mxGeometry>
                </mxCell>
                <mxCell id="12" value="footer" style="whiteSpace=wrap;html=1;fontSize=30;rotation=0;" vertex="1" parent="1">
                    <mxGeometry x="770" y="370" width="100" height="40" as="geometry"/>
                </mxCell>
                <mxCell id="28" value="link" style="whiteSpace=wrap;html=1;fontSize=30;rotation=0;" vertex="1" parent="1">
                    <mxGeometry x="700" y="420" width="100" height="40" as="geometry"/>
                </mxCell>
                <mxCell id="32" style="edgeStyle=none;rounded=0;html=1;exitX=0;exitY=0.5;exitDx=0;exitDy=0;entryX=0.25;entryY=1;entryDx=0;entryDy=0;fontSize=30;endArrow=none;endFill=0;" edge="1" parent="1" source="29" target="11">
                    <mxGeometry relative="1" as="geometry">
                        <Array as="points">
                            <mxPoint x="685" y="490"/>
                        </Array>
                    </mxGeometry>
                </mxCell>
                <mxCell id="29" value="meta" style="whiteSpace=wrap;html=1;fontSize=30;rotation=0;" vertex="1" parent="1">
                    <mxGeometry x="700" y="470" width="100" height="40" as="geometry"/>
                </mxCell>
                <mxCell id="33" style="edgeStyle=none;rounded=0;html=1;exitX=0;exitY=0.5;exitDx=0;exitDy=0;entryX=0.25;entryY=1;entryDx=0;entryDy=0;fontSize=30;endArrow=none;endFill=0;" edge="1" parent="1" source="30" target="11">
                    <mxGeometry relative="1" as="geometry">
                        <Array as="points">
                            <mxPoint x="685" y="540"/>
                        </Array>
                    </mxGeometry>
                </mxCell>
                <mxCell id="30" value="title" style="whiteSpace=wrap;html=1;fontSize=30;rotation=0;" vertex="1" parent="1">
                    <mxGeometry x="700" y="520" width="100" height="40" as="geometry"/>
                </mxCell>
            </root>
        </mxGraphModel>
    </diagram>
</mxfile>